<?xml version="1.0" encoding="UTF-8" standalone="no"?><!DOCTYPE svg PUBLIC "-//W3C//DTD SVG 1.1//EN" "http://www.w3.org/Graphics/SVG/1.1/DTD/svg11.dtd"><svg width="100%" height="100%" viewBox="0 0 2425 506" version="1.1" xmlns="http://www.w3.org/2000/svg" xmlns:xlink="http://www.w3.org/1999/xlink" xml:space="preserve" xmlns:serif="http://www.serif.com/" style="fill-rule:evenodd;clip-rule:evenodd;stroke-linejoin:round;stroke-miterlimit:2;"><path d="M958.862,148.021l0,6.075l-100.875,111.408l100.875,111.408l0,6.079l-51.854,0l-87.913,-95.613l-52.667,0l0,95.613l-43.754,0l0,-311.946l43.754,0l0,172.583l52.667,0l87.913,-95.608l51.854,0Z" style="fill:#fff;fill-rule:nonzero;"/><path d="M1238.796,148.83l0,274.671c0,29.167 -23.496,52.663 -52.663,52.663l-145.033,0l0,-43.75l145.033,0c4.858,0 8.913,-4.054 8.913,-8.912l0,-40.508l-142.604,0c-29.167,0 -52.667,-23.504 -52.667,-52.671l0,-181.492l43.754,0l0,181.492c0,4.867 4.05,8.912 8.912,8.912l133.692,0c4.858,0 8.913,-4.046 8.913,-8.912l0,-181.492l43.75,0Z" style="fill:#fff;fill-rule:nonzero;"/><path d="M1531.704,200.688l0,182.304l-43.754,0l0,-182.304c0,-4.862 -4.05,-8.912 -8.913,-8.912l-133.692,0c-4.862,0 -8.908,4.05 -8.908,8.912l0,182.304l-43.754,0l0,-234.971l186.354,0c29.167,0 52.667,23.496 52.667,52.667Z" style="fill:#fff;fill-rule:nonzero;"/><path d="M1788.954,243.63l0,-42.942c0,-4.862 -4.054,-8.912 -8.917,-8.912l-133.688,0c-4.862,0 -8.913,4.05 -8.913,8.912l0,42.942l151.517,0Zm43.754,-42.942l0,86.692l-195.271,0l0,42.942c0,4.867 4.05,8.912 8.913,8.912l186.358,0l0,43.758l-186.358,0c-29.167,0 -52.663,-23.504 -52.663,-52.671l0,-129.633c0,-29.171 23.496,-52.667 52.663,-52.667l133.688,0c29.171,0 52.671,23.496 52.671,52.667Z" style="fill:#fff;fill-rule:nonzero;"/><path d="M1938.846,191.775l0,138.546c0,4.867 4.046,8.912 8.908,8.912l87.504,0l0,43.758l-87.504,0c-29.171,0 -52.663,-23.504 -52.663,-52.671l0,-259.275l43.754,0l0,76.975l96.413,0l0,43.754l-96.413,0Z" style="fill:#fff;fill-rule:nonzero;"/><path d="M2081.038,148.021l43.754,0l0,234.971l-43.754,0l0,-234.971Zm43.754,-76.975l0,43.754l-43.754,0l0,-43.754l43.754,0Z" style="fill:#fff;fill-rule:nonzero;"/><path d="M2424.171,339.234l0,43.758l-186.354,0c-29.171,0 -52.667,-23.504 -52.667,-52.671l0,-129.633c0,-29.171 23.496,-52.667 52.667,-52.667l185.542,0l0,43.754l-185.542,0c-4.862,0 -8.917,4.05 -8.917,8.912l0,129.633c0,4.867 4.054,8.912 8.917,8.912l186.354,0Z" style="fill:#fff;fill-rule:nonzero;"/><path d="M480.625,0.792c56.667,-1.167 113.458,-0.792 170.125,-0.458c-47.792,56 -99.375,108.625 -148.625,163.329c-26.458,30.171 -53.958,59.421 -81,89.046c75.292,85 153.875,166.996 229.625,251.579c-57.5,0.333 -115.042,0.333 -172.583,0.792c-77.333,-84.667 -156.292,-167.792 -233.917,-252.167c45.833,-51.704 94.996,-100.413 141.25,-151.75c32.333,-32.829 61.958,-68.537 95.125,-100.371Z" style="fill:#fff;fill-rule:nonzero;"/><path d="M102.75,146.913c45.833,-49.125 92,-98 138.829,-146.204c56.542,-0.208 113.171,-0.708 169.754,0.417c-44.167,49.333 -90.625,96.458 -134.504,146c-57.996,0.375 -116.079,0.375 -174.079,-0.213Z" style="fill:#fff;fill-rule:nonzero;"/><path d="M67.912,184c57.588,0.375 115.379,-0.917 172.917,0.708c-22.417,22 -44.162,44.625 -65.079,68.042c21.663,23.079 43.287,46.25 64.333,69.917c-58.25,-0.917 -116.5,0.458 -174.75,-0.542c-21.625,-23.212 -43.333,-46.333 -65.333,-69.167c22.792,-22.796 44.371,-47.042 67.912,-68.958Z" style="fill:#fff;fill-rule:nonzero;"/><path d="M103.167,358.709c55.75,0.208 111.583,-0.421 167.329,-0.458c4.25,-0.167 7.629,1.583 10.167,5.208c43.462,47.542 88.087,94.079 132.171,141.083c-57.375,-0.254 -114.75,0.537 -172.125,-0.213c-45.792,-48.579 -91.75,-97.042 -137.542,-145.621Z" style="fill:#fff;fill-rule:nonzero;"/></svg>